<?xml version="1.0" encoding="utf-8"?>
<svg
  xmlns="http://www.w3.org/2000/svg"
  viewBox="0 0 330 330"
  aria-hidden="true"
>
  <g
    fill="currentColor"
    stroke="currentColor"
    stroke-linecap="round"
    stroke-linejoin="round"
    transform="translate(165 165) scale(0.85) translate(-165 -165)"
  >
    <path d="M230.267 20.418C227.733 27.8001 220.267 36.034 212.8 39.7251C209.067 41.7126 206 43.7001 206 44.4099C206 44.9778 208.8 47.1072 212.4 48.9528C219.867 53.0697 226 59.6001 229.867 67.834C231.467 71.2412 233.333 73.9385 234.133 73.9385C234.8 73.9385 236.4 71.5251 237.467 68.6858C240.933 60.026 245.6 54.6313 254 49.9465C258.533 47.3912 261.733 44.6939 261.2 43.8421C260.667 43.1322 258.4 41.5706 255.867 40.4349C249.2 37.4537 242.267 30.3555 238.533 22.5474C234.667 14.5974 232.533 13.8876 230.267 20.418Z" />
    <path d="M164.266 55.7668C156.666 72.3766 145.599 84.5855 131.732 91.1159C118.799 97.2203 118.666 97.3623 118.266 100.627C117.866 103.041 119.866 104.602 130.266 109.855C147.066 118.515 155.999 128.169 164.132 146.056C169.199 157.129 170.666 159.259 172.932 158.833C175.999 158.407 176.132 158.265 181.866 144.494C187.999 129.73 199.466 117.947 215.066 109.855C225.466 104.602 227.466 103.041 227.066 100.627C226.799 98.9239 225.732 97.2203 224.666 96.6525C223.599 95.9427 218.132 93.2453 212.532 90.406C199.599 83.8757 187.466 70.815 181.732 57.0445C176.132 43.5579 175.999 43.4159 172.932 42.99C170.666 42.5641 169.199 44.6936 164.266 55.7668Z" />
    <path d="M255.601 109.855C250.134 122.49 244.667 128.453 233.201 134.415C227.734 137.396 223.334 140.519 223.334 141.513C223.334 142.649 227.201 145.346 231.867 147.618C242.667 152.728 250.534 161.104 255.601 172.745C257.734 177.714 260.401 181.831 261.467 181.831C262.534 181.831 265.201 177.714 267.334 172.745C272.267 161.814 281.867 151.735 292.001 146.908C296.134 145.062 299.334 142.649 299.334 141.513C299.334 140.378 295.601 137.538 290.934 135.125C280.667 129.872 271.067 119.509 266.534 108.72C264.801 104.461 262.534 100.911 261.467 100.911C260.401 100.911 257.867 104.886 255.601 109.855Z" />
    <path d="M60.2667 237.765C43.6 277.231 30 310.45 30 311.728C30 313.573 32 313.857 44.2667 313.573L58.5333 313.148L65.2 297.106L71.7333 281.206H104H136.267L142.8 297.106L149.467 313.148L163.2 313.573C170.933 313.715 177.6 313.431 178.267 312.722C179.067 311.87 167.067 282.057 148.933 239.184L118.267 166.924L104.4 166.499L90.5333 166.073L60.2667 237.765ZM115.2 228.679C120.533 241.882 124.533 253.381 124 254.232C122.933 256.078 85.0667 256.22 84 254.232C82.9333 252.387 102.133 204.545 104 204.545C104.8 204.545 109.867 215.334 115.2 228.679Z" />
    <path d="M196.666 240.037V314L211.066 313.574L225.333 313.148V240.037V166.925L211.066 166.499L196.666 166.073V240.037Z" />
  </g>
</svg>
