<?xml version="1.0" encoding="UTF-8"?>
<svg
        id="Ebene_1"
        data-name="Ebene 1"
        xmlns="http://www.w3.org/2000/svg"
        viewBox="0 0 1000 1000"
>
    <g
            fill="currentColor"
            stroke="currentColor"
            stroke-width="15"
            stroke-linecap="round"
            stroke-linejoin="round"
            transform="translate(0,60)"
    >
        <path d="M612.2,671.97h-201.59l-179.44,118.62.72-118.62h-103.4c-29.51,0-53.51-24.01-53.51-53.51V252.72c0-29.51,24.01-53.51,53.51-53.51h635.55c29.51,0,53.51,24.01,53.51,53.51v191.27c0,10.18,8.26,18.44,18.44,18.44s18.44-8.26,18.44-18.44v-191.27c0-49.84-40.55-90.39-90.39-90.39H128.5c-49.84,0-90.39,40.55-90.39,90.39v365.74c0,49.84,40.55,90.39,90.39,90.39h66.31l-.63,103.55c-.06,9.29,4.98,17.81,13.16,22.24,3.75,2.03,7.86,3.04,11.96,3.04,4.83,0,9.65-1.4,13.85-4.17l188.56-124.65h190.5c10.18,0,18.44-8.26,18.44-18.44s-8.26-18.44-18.44-18.44Z"/>
        <path d="M735.73,386.87c0-10.18-8.26-18.44-18.44-18.44H175.25c-10.18,0-18.44,8.25-18.44,18.44s8.25,18.44,18.44,18.44h542.04c10.18,0,18.44-8.25,18.44-18.44Z"/>
        <path d="M175.25,307.88h475.67c10.18,0,18.44-8.25,18.44-18.44s-8.26-18.44-18.44-18.44H175.25c-10.18,0-18.44,8.25-18.44,18.44s8.25,18.44,18.44,18.44Z"/>
        <path d="M175.25,465.87c-10.18,0-18.44,8.26-18.44,18.44s8.25,18.44,18.44,18.44h313.43c10.18,0,18.44-8.26,18.44-18.44s-8.26-18.44-18.44-18.44H175.25Z"/>
        <path d="M612.2,563.3H175.25c-10.18,0-18.44,8.26-18.44,18.44s8.25,18.44,18.44,18.44h436.95c10.18,0,18.44-8.26,18.44-18.44s-8.26-18.44-18.44-18.44Z"/>
        <path d="M944.1,617.54c-68.15,0-123.6-55.45-123.6-123.6,0-9.82-7.96-17.78-17.78-17.78s-17.78,7.96-17.78,17.78c0,68.15-55.45,123.6-123.6,123.6-9.82,0-17.78,7.96-17.78,17.78s7.96,17.78,17.78,17.78c68.15,0,123.6,55.45,123.6,123.6,0,9.82,7.96,17.78,17.78,17.78s17.78-7.96,17.78-17.78c0-68.15,55.45-123.6,123.6-123.6,9.82,0,17.78-7.96,17.78-17.78s-7.96-17.78-17.78-17.78ZM802.72,703.65c-15.16-29.22-39.11-53.17-68.33-68.33,29.22-15.16,53.17-39.11,68.33-68.33,15.16,29.22,39.11,53.17,68.33,68.33-29.22,15.16-53.17,39.11-68.33,68.33Z"/>
    </g>
</svg>
