<svg xmlns="http://www.w3.org/2000/svg" width="200" height="200" viewBox="0 0 200 200" fill="none">
    <path fill="currentColor" fill-rule="evenodd" d="
M 86.0 141.5 L 65.0 141.5 L 58.5 137.0 L 57.5 113.0 L 61.5 101.0 L 151.0 11.5 L 164.0 6.5 L 169.0 6.5 L 180.0 10.5 L 188.5 19.0 L 191.5 26.0 L 192.5 35.0 L 187.5 48.0 L 98.0 137.5 L 86.0 141.5 Z
M 87.5 124.0 L 173.5 39.0 L 175.5 30.0 L 171.0 24.5 L 164.0 23.5 L 160.0 25.5 L 75.5 110.0 L 74.5 124.0 L 87.5 124.0 Z
M 139.0 191.5 L 34.0 190.5 L 22.0 185.5 L 13.5 177.0 L 9.5 169.0 L 7.5 156.0 L 7.5 59.0 L 8.5 50.0 L 12.5 40.0 L 23.0 29.5 L 38.0 24.5 L 94.0 24.5 L 99.5 31.0 L 98.5 37.0 L 92.0 41.5 L 37.0 41.5 L 32.0 43.5 L 25.5 51.0 L 24.5 160.0 L 27.5 168.0 L 35.0 173.5 L 143.0 174.5 L 151.0 171.5 L 157.5 162.0 L 157.5 107.0 L 158.5 104.0 L 164.0 99.5 L 169.0 99.5 L 172.5 102.0 L 174.5 106.0 L 174.5 161.0 L 172.5 170.0 L 166.5 180.0 L 157.0 187.5 L 139.0 191.5 Z
  "/>
</svg>
