<svg xmlns="http://www.w3.org/2000/svg" viewBox="0 0 24 24" fill="none">
  <path d="M4 5C4 3.34315 5.34315 2 7 2H10" stroke="currentColor" stroke-width="1.7" stroke-linecap="round" stroke-linejoin="round"/>
  <path d="M4 5C4 6.65685 5.34315 8 7 8H8" stroke="currentColor" stroke-width="1.7" stroke-linecap="round" stroke-linejoin="round"/>
  <path d="M20 19C20 20.6569 18.6569 22 17 22H14" stroke="currentColor" stroke-width="1.7" stroke-linecap="round" stroke-linejoin="round"/>
  <path d="M20 19C20 17.3431 18.6569 16 17 16H16" stroke="currentColor" stroke-width="1.7" stroke-linecap="round" stroke-linejoin="round"/>
  <path d="M4 5L7 2L10 5" stroke="currentColor" stroke-width="1.7" stroke-linecap="round" stroke-linejoin="round"/>
  <path d="M20 19L17 22L14 19" stroke="currentColor" stroke-width="1.7" stroke-linecap="round" stroke-linejoin="round"/>
  <path d="M16 16A8 8 0 0 1 8 8" stroke="currentColor" stroke-width="1.7" stroke-linecap="round" stroke-linejoin="round"/>
  <path d="M14 5A8 8 0 0 1 20 13" stroke="currentColor" stroke-width="1.7" stroke-linecap="round" stroke-linejoin="round"/>
</svg>
